# xmcd CD database file
#
# Track frame offsets:
#	150
#	18677
#	36773
#	49097
#	63983
#	82660
#	95820
#
# Disc length: 1479 seconds
#
# Revision: 0
# Processed by: cddbd v1.5.1PL0 Copyright (c) Steve Scherf et al.
# Submitted via: CDex 1.51
#
DISCID=5205c507
DTITLE=9BALL - SEVEN DOORS
DYEAR=2005
DGENRE=Rock
TTITLE0=Time goes on
TTITLE1=Happy New Life
TTITLE2=YOU
TTITLE3=このままずっと...
TTITLE4=Let's live for tomorrow
TTITLE5=State it tight
TTITLE6=WONDER LAND
EXTD=YEAR: 2005
EXTT0=
EXTT1=
EXTT2=
EXTT3=
EXTT4=
EXTT5=
EXTT6=
PLAYORDER=
